<?xml version="1.0" standalone="no"?>
<!DOCTYPE svg PUBLIC "-//W3C//DTD SVG 20010904//EN"
 "http://www.w3.org/TR/2001/REC-SVG-20010904/DTD/svg10.dtd">
<svg version="1.0" xmlns="http://www.w3.org/2000/svg"
 width="700.000000pt" height="700.000000pt" viewBox="0 0 700.000000 700.000000"
 preserveAspectRatio="xMidYMid meet">
<metadata>
Created by potrace 1.11, written by Peter Selinger 2001-2013
</metadata>
<g transform="translate(0.000000,700.000000) scale(0.100000,-0.100000)"
fill="#000000" stroke="none">
<path d="M4130 6711 c-153 -82 -3050 -1818 -3068 -1838 -16 -17 -21 -32 -16
-46 4 -12 238 -410 520 -884 283 -474 514 -865 514 -868 0 -3 -60 -5 -133 -5
l-133 0 -47 -48 -47 -48 0 -130 0 -130 43 -42 c40 -39 46 -42 100 -42 l57 0 0
-137 c0 -76 7 -534 15 -1018 8 -484 15 -951 15 -1037 l0 -158 70 -35 70 -35
165 2 164 3 1285 1278 1286 1279 0 126 0 126 -32 27 c-18 15 -31 29 -28 32 3
3 236 144 518 312 350 209 516 313 521 328 5 12 5 32 0 44 -4 12 -295 502
-645 1090 -350 587 -742 1245 -871 1460 -128 216 -242 397 -253 403 -25 14
-30 13 -70 -9z m-50 -1430 c276 -86 511 -410 626 -863 14 -55 24 -101 22 -103
-15 -11 -243 -144 -244 -142 -1 1 -9 54 -18 117 -36 262 -118 455 -253 600
-38 41 -87 80 -125 101 -58 31 -70 34 -148 34 -72 0 -93 -4 -140 -27 -79 -39
-139 -94 -166 -152 -42 -91 -30 -183 60 -449 126 -370 134 -525 40 -716 -67
-135 -230 -266 -404 -325 -159 -53 -282 -44 -432 31 -163 82 -329 275 -443
516 -76 161 -142 378 -147 483 l-3 47 123 73 c68 41 125 74 128 74 2 0 4 -22
4 -49 0 -85 29 -274 55 -366 100 -345 334 -579 547 -550 60 8 171 62 223 108
22 19 54 59 70 88 28 51 30 60 30 169 -1 115 -1 115 -68 315 -122 367 -134
514 -52 682 67 137 261 280 435 318 82 18 194 13 280 -14z m808 -2267 c12 -8
22 -19 22 -24 0 -18 -41 -21 -65 -6 -21 14 -60 16 -287 13 l-263 -2 266 -3
c308 -2 303 -1 297 -89 l-3 -50 -1254 -1260 -1254 -1261 -104 -7 c-96 -6 -107
-5 -125 12 -18 19 -20 60 -38 1214 -11 657 -20 1195 -20 1197 0 1 -44 2 -98 2
-63 0 -102 4 -110 12 -7 7 -12 41 -12 83 0 56 4 75 18 87 14 13 93 16 544 22
374 5 533 4 548 -4 17 -9 20 -20 20 -82 0 -103 -7 -108 -137 -108 l-104 0 7
-492 c3 -271 9 -566 13 -655 l6 -162 603 595 602 596 0 69 0 69 -92 0 c-121 1
-128 6 -128 95 0 109 -10 105 269 107 l236 3 -234 2 c-229 3 -235 3 -258 -19
-20 -18 -23 -31 -23 -92 0 -57 4 -74 21 -92 18 -19 19 -25 8 -45 l-12 -23 -28
32 c-28 31 -29 37 -29 125 0 89 1 94 28 120 l28 27 239 3 c760 9 880 8 903 -9z
m-1890 -27 c21 -22 21 -23 3 -34 -15 -9 -23 -9 -37 3 -27 21 -1077 9 -1111
-12 -21 -13 -23 -22 -23 -93 0 -58 4 -82 15 -91 16 -13 21 -55 7 -63 -4 -3
-19 5 -35 18 -26 23 -27 27 -27 128 0 98 1 105 26 128 l26 24 346 5 c791 13
786 13 810 -13z m1922 -100 l0 -83 -1057 -1050 c-582 -577 -1155 -1145 -1273
-1261 l-215 -211 -127 -3 c-118 -4 -125 -3 -117 14 8 14 25 17 112 17 l103 0
1262 1263 1262 1264 0 51 c0 48 17 82 41 82 5 0 9 -37 9 -83z m-1926 -149
c-25 -25 -34 -28 -92 -28 l-64 0 7 -500 7 -500 -43 -102 -44 -102 -6 299 c-4
165 -9 445 -12 623 l-5 322 102 0 c96 0 104 2 126 25 21 22 22 30 16 86 -5 52
-3 64 12 75 16 12 17 6 20 -78 3 -87 2 -92 -24 -120z m926 7 c-20 -22 -32 -25
-87 -25 -35 0 -63 4 -63 9 0 18 28 30 80 34 30 2 64 4 74 5 18 2 18 0 -4 -23z
m-552 -677 c-320 -317 -584 -573 -586 -569 -1 4 19 55 45 114 l48 107 535 516
535 517 3 -54 4 -54 -584 -577z m-1358 648 c-19 -18 -140 -27 -140 -11 0 21
13 25 84 25 60 0 68 -2 56 -14z m59 -1180 c18 -1114 20 -1188 37 -1207 15 -17
16 -21 3 -34 -12 -12 -18 -10 -46 13 l-33 27 -18 1170 -19 1170 25 27 c14 15
27 26 29 24 2 -1 12 -537 22 -1190z m941 400 c0 -2 -18 -19 -40 -36 -22 -17
-40 -27 -40 -21 0 6 17 22 37 36 39 26 43 28 43 21z"/>
</g>
</svg>
